<?xml version="1.0" encoding="utf-8"?>
<!-- Generator: Adobe Illustrator 16.0.0, SVG Export Plug-In . SVG Version: 6.00 Build 0)  -->
<!DOCTYPE svg PUBLIC "-//W3C//DTD SVG 1.1//EN" "http://www.w3.org/Graphics/SVG/1.1/DTD/svg11.dtd">
<svg version="1.1" id="Ebene_1" xmlns="http://www.w3.org/2000/svg" xmlns:xlink="http://www.w3.org/1999/xlink" x="0px" y="0px"
	 width="724.56px" height="179.99px" viewBox="37.72 18.816 724.56 179.99" enable-background="new 37.72 18.816 724.56 179.99"
	 xml:space="preserve">
<g>
	<g>
		<g>
			<path id="l1pgTReD6A" fill="#137387" d="M37.72,92.41h141.61v31.061H37.72V92.41z"/>
		</g>
	</g>
	<g>
		<g>
			<path id="a82UN1vdsZ" fill="#5CD2D1" d="M179.33,92.41h141.62v31.061H179.33V92.41z"/>
		</g>
	</g>
	<g>
		<g>
			<path id="b3HiW7xZUj" fill="#137387" d="M320.95,92.41H462.56v31.061H320.95V92.41z"/>
		</g>
	</g>
	<g>
		<g>
			<path id="f2NctRYaPc" fill="#5CD2D1" d="M462.56,92.41h141.621v31.061H462.56V92.41z"/>
		</g>
	</g>
	<g>
		<g>
			<path id="fGkuN825" fill="#137387" d="M604.181,92.41H745.79v31.061H604.181V92.41z"/>
		</g>
	</g>
	<g id="c415epOM1">
		<g>
			<text transform="matrix(1 0 0 1 58.835 112.4414)" fill="#FFFFFF" font-family="'Roboto-Medium'" font-size="12">Along Time Ago</text>
		</g>
	</g>
	<g id="a8oWd6tTY">
		<g>
			<text transform="matrix(1 0 0 1 230.5913 112.4414)" fill="#FFFFFF" font-family="'Roboto-Medium'" font-size="12">1980er</text>
		</g>
	</g>
	<g id="b86wONEq3">
		<g>
			<text transform="matrix(1 0 0 1 372.2065 112.4414)" fill="#FFFFFF" font-family="'Roboto-Medium'" font-size="12">1990er</text>
		</g>
	</g>
	<g id="d8CiIl7Yj">
		<g>
			<text transform="matrix(1 0 0 1 516.8535 112.4414)" fill="#FFFFFF" font-family="'Roboto-Medium'" font-size="12">2000er</text>
		</g>
	</g>
	<g id="a14BLlUgVC">
		<g>
			<text transform="matrix(1 0 0 1 658.1816 112.4414)" fill="#FFFFFF" font-family="'Roboto-Medium'" font-size="12">2010er</text>
		</g>
	</g>
	<g>
		<g>
			<path id="efRNWhhWY" fill="#137387" d="M745.79,92.41l16.49,15.529l-16.49,15.531l-16.49-15.531L745.79,92.41z"/>
		</g>
	</g>
	<g>
		<g>
			<path id="cbcxKTEFP" fill="#137387" d="M462.56,92.41l16.49,15.529l-16.49,15.531l-16.49-15.531L462.56,92.41z"/>
		</g>
	</g>
	<g>
		<g>
			<path id="a2mKKxr8r" fill="#137387" d="M179.33,92.41l16.49,15.529l-16.49,15.531l-16.49-15.531L179.33,92.41z"/>
		</g>
	</g>
	<g>
		<g>
			<path id="d41aRQTQUH" fill="#5CD2D1" d="M320.95,92.41l16.49,15.529l-16.49,15.531l-16.5-15.531L320.95,92.41z"/>
		</g>
	</g>
	<g>
		<g>
			<path id="bFqFuKWw5" fill="#5CD2D1" d="M604.181,92.41l16.489,15.529l-16.489,15.531l-16.5-15.531L604.181,92.41z"/>
		</g>
	</g>
	<g>
		<g>
			<path id="euGsuqYxG" fill="#137387" d="M174.84,93.44c0,3.31-2.69,6-6,6c-3.32,0-6-2.69-6-6s2.68-6,6-6
				C172.15,87.44,174.84,90.13,174.84,93.44z"/>
		</g>
		<g>
			<g>
				<path id="euGsuqYxG_1_" fill-opacity="0" stroke="#FFFFFF" d="M174.84,93.44c0,3.31-2.69,6-6,6c-3.32,0-6-2.69-6-6s2.68-6,6-6
					C172.15,87.44,174.84,90.13,174.84,93.44z"/>
			</g>
		</g>
	</g>
	<g>
		<g>
			<path id="cgwNoULBX" fill="#137387" d="M167.84,43.44h2v50h-2V43.44z"/>
		</g>
	</g>
	<g>
		<g>
			<path id="a6u1rretTJ" fill="#137387" d="M474.56,93.44c0,3.31-2.689,6-6,6c-3.31,0-6-2.69-6-6s2.69-6,6-6
				C471.87,87.44,474.56,90.13,474.56,93.44z"/>
		</g>
		<g>
			<g>
				<path id="a6u1rretTJ_1_" fill-opacity="0" stroke="#FFFFFF" d="M474.56,93.44c0,3.31-2.689,6-6,6c-3.31,0-6-2.69-6-6s2.69-6,6-6
					C471.87,87.44,474.56,90.13,474.56,93.44z"/>
			</g>
		</g>
	</g>
	<g>
		<g>
			<path id="aekzr3xVK" fill="#137387" d="M467.56,43.44h2v50h-2V43.44z"/>
		</g>
	</g>
	<g>
		<g>
			<path id="j22w4qz9A" fill="#137387" d="M542.399,123.471c0,3.309-2.689,6-6,6c-3.31,0-6-2.691-6-6c0-3.32,2.69-6,6-6
				C539.71,117.471,542.399,120.15,542.399,123.471z"/>
		</g>
		<g>
			<g>
				<path id="j22w4qz9A_1_" fill-opacity="0" stroke="#FFFFFF" d="M542.399,123.471c0,3.309-2.689,6-6,6c-3.31,0-6-2.691-6-6
					c0-3.32,2.69-6,6-6C539.71,117.471,542.399,120.15,542.399,123.471z"/>
			</g>
		</g>
	</g>
	<g>
		<g>
			<path id="a1lL1j8uDn" fill="#137387" d="M535.399,125.939h2v44.16h-2V125.939z"/>
		</g>
	</g>
	<g>
		<g>
			<path id="c14hSy0EB8" fill="#137387" d="M668.729,93.44c0,3.31-2.689,6-6,6c-3.31,0-6-2.69-6-6s2.69-6,6-6
				C666.04,87.44,668.729,90.13,668.729,93.44z"/>
		</g>
		<g>
			<g>
				<path id="c14hSy0EB8_1_" fill-opacity="0" stroke="#FFFFFF" d="M668.729,93.44c0,3.31-2.689,6-6,6c-3.31,0-6-2.69-6-6
					s2.69-6,6-6C666.04,87.44,668.729,90.13,668.729,93.44z"/>
			</g>
		</g>
	</g>
	<g>
		<g>
			<path id="a1NliCHhf" fill="#137387" d="M661.729,43.44h2v50h-2V43.44z"/>
		</g>
	</g>
	<g id="b398KP45KR">
		<g>
			<text transform="matrix(1 0 0 1 466.9707 40.9375)" font-family="'Roboto-Medium'" font-size="11">FreeBSD Jails</text>
		</g>
	</g>
	<g id="buEnhQCBD">
		<g>
			<text transform="matrix(1 0 0 1 167.8398 29.9375)" fill="#838383" font-family="'Roboto-Medium'" font-size="13">1979</text>
		</g>
	</g>
	<g id="a7VEIN4j5">
		<g>
			<text transform="matrix(1 0 0 1 167.8398 40.9375)" font-family="'Roboto-Medium'" font-size="12">chroot</text>
		</g>
	</g>
	<g id="ak2r7tyTu">
		<g>
			<text transform="matrix(1 0 0 1 467.5586 29.9375)" fill="#838383" font-family="'Roboto-Medium'" font-size="13">2000</text>
		</g>
	</g>
	<g id="a6pS6LxFqO">
		<g>
			<text transform="matrix(1 0 0 1 661.7295 40.9375)" font-family="'Roboto-Medium'" font-size="12">Docker</text>
		</g>
	</g>
	<g id="adzcPmPV">
		<g>
			<text transform="matrix(1 0 0 1 661.7295 29.9375)" fill="#838383" font-family="'Roboto-Medium'" font-size="13">2013</text>
		</g>
	</g>
	<g id="brPr6AlbT">
		<g>
			<text transform="matrix(1 0 0 1 537.3984 195.8262)" font-family="'Roboto-Medium'" font-size="11">OpenVZ</text>
		</g>
	</g>
	<g id="a5CCXGeQ">
		<g>
			<text transform="matrix(1 0 0 1 535.4014 183.5)" fill="#838383" font-family="'Roboto-Medium'" font-size="13">2005</text>
		</g>
	</g>
	<g>
		<g>
			<path id="c4Wk1JGY4s" fill="#137387" d="M565.13,93.44c0,3.31-2.689,6-6,6s-6-2.69-6-6s2.689-6,6-6S565.13,90.13,565.13,93.44z"
				/>
		</g>
		<g>
			<g>
				<path id="c4Wk1JGY4s_1_" fill-opacity="0" stroke="#FFFFFF" d="M565.13,93.44c0,3.31-2.689,6-6,6s-6-2.69-6-6s2.689-6,6-6
					S565.13,90.13,565.13,93.44z"/>
			</g>
		</g>
	</g>
	<g>
		<g>
			<path id="eNQgNbCIG" fill="#137387" d="M558.13,43.44h2v50h-2V43.44z"/>
		</g>
	</g>
	<g>
		<g>
			<path id="bCNMWeBoo" fill="#137387" d="M583.86,123.471c0,3.309-2.68,6-6,6c-3.311,0-6-2.691-6-6c0-3.32,2.689-6,6-6
				C581.181,117.471,583.86,120.15,583.86,123.471z"/>
		</g>
		<g>
			<g>
				<path id="bCNMWeBoo_1_" fill-opacity="0" stroke="#FFFFFF" d="M583.86,123.471c0,3.309-2.68,6-6,6c-3.311,0-6-2.691-6-6
					c0-3.32,2.689-6,6-6C581.181,117.471,583.86,120.15,583.86,123.471z"/>
			</g>
		</g>
	</g>
	<g>
		<g>
			<path id="b5cS5xDSl" fill="#137387" d="M576.86,125.939h2v12h-2V125.939z"/>
		</g>
	</g>
	<g id="f3Nt02XxD">
		<g>
			<text transform="matrix(1 0 0 1 576.4512 160.3711)" font-family="'Roboto-Medium'" font-size="11">LXC</text>
		</g>
	</g>
	<g id="aPzjisejY">
		<g>
			<text transform="matrix(1 0 0 1 576.4512 148.7041)" fill="#838383" font-family="'Roboto-Medium'" font-size="13">2008</text>
		</g>
	</g>
	<g id="a1HJEY4jta">
		<g>
			<text transform="matrix(1 0 0 1 557.3418 40.9375)" font-family="'Roboto-Medium'" font-size="11">cgroups</text>
		</g>
	</g>
	<g id="aOgwxJoTG">
		<g>
			<text transform="matrix(1 0 0 1 558.1299 29.9375)" fill="#838383" font-family="'Roboto-Medium'" font-size="13">2007</text>
		</g>
	</g>
	<g>
		<g>
			<path id="hJY4EClBc" fill="#137387" d="M516.851,123.471c0,3.309-2.69,6-6,6c-3.311,0-6-2.691-6-6c0-3.32,2.689-6,6-6
				C514.16,117.471,516.851,120.15,516.851,123.471z"/>
		</g>
		<g>
			<g>
				<path id="hJY4EClBc_1_" fill-opacity="0" stroke="#FFFFFF" d="M516.851,123.471c0,3.309-2.69,6-6,6c-3.311,0-6-2.691-6-6
					c0-3.32,2.689-6,6-6C514.16,117.471,516.851,120.15,516.851,123.471z"/>
			</g>
		</g>
	</g>
	<g>
		<g>
			<path id="akm4q1mJs" fill="#137387" d="M509.851,125.939h2v44.16h-2V125.939z"/>
		</g>
	</g>
	<g id="h3Xfm3WBgC">
		<g>
			<text transform="matrix(1 0 0 1 446.0684 195.8262)" font-family="'Roboto-Medium'" font-size="11">Solaris Zones</text>
		</g>
	</g>
	<g id="cibpiRVMA">
		<g>
			<text transform="matrix(1 0 0 1 484.1182 181.999)" fill="#838383" font-family="'Roboto-Medium'" font-size="13">2004</text>
		</g>
	</g>
	<g>
		<g>
			<path id="a9E7DvbKd" fill="#137387" d="M694.899,123.471c0,3.309-2.689,6-6,6c-3.31,0-6-2.691-6-6c0-3.32,2.69-6,6-6
				C692.21,117.471,694.899,120.15,694.899,123.471z"/>
		</g>
		<g>
			<g>
				<path id="a9E7DvbKd_1_" fill-opacity="0" stroke="#FFFFFF" d="M694.899,123.471c0,3.309-2.689,6-6,6c-3.31,0-6-2.691-6-6
					c0-3.32,2.69-6,6-6C692.21,117.471,694.899,120.15,694.899,123.471z"/>
			</g>
		</g>
	</g>
	<g>
		<g>
			<path id="akjLzGASF" fill="#137387" d="M687.899,125.939h2v44.16h-2V125.939z"/>
		</g>
	</g>
	<g id="a32u9MW8Ec">
		<g>
			<text transform="matrix(1 0 0 1 687.8994 195.8262)" font-family="'Roboto-Medium'" font-size="11">LXD</text>
		</g>
	</g>
	<g id="b29aRsoQQO">
		<g>
			<text transform="matrix(1 0 0 1 687.5176 183.5)" fill="#838383" font-family="'Roboto-Medium'" font-size="13">2015</text>
		</g>
	</g>
	<g>
		<g>
			<path id="kozw3RMAx" fill="#137387" d="M685.09,94c0,3.31-2.69,6-6,6s-6-2.69-6-6s2.69-6,6-6S685.09,90.69,685.09,94z"/>
		</g>
		<g>
			<g>
				<path id="kozw3RMAx_1_" fill-opacity="0" stroke="#FFFFFF" d="M685.09,94c0,3.31-2.69,6-6,6s-6-2.69-6-6s2.69-6,6-6
					S685.09,90.69,685.09,94z"/>
			</g>
		</g>
	</g>
	<g>
		<g>
			<path id="d3HzGAARZC" fill="#137387" d="M678.09,77h2v17h-2V77z"/>
		</g>
	</g>
	<g id="a1PjzErfa7">
		<g>
			<text transform="matrix(1 0 0 1 677.0918 73.999)" font-family="'Roboto-Medium'" font-size="12">rkt</text>
		</g>
	</g>
	<g id="h7rgsIjfh">
		<g>
			<text transform="matrix(1 0 0 1 678.0918 60.499)" fill="#838383" font-family="'Roboto-Medium'" font-size="13">2014</text>
		</g>
	</g>
</g>
</svg>
